<svg version="1.1" xmlns="http://www.w3.org/2000/svg" width="206" height="216">
<path d="M0 0 C67.98 0 135.96 0 206 0 C206 71.28 206 142.56 206 216 C138.02 216 70.04 216 0 216 C0 144.72 0 73.44 0 0 Z " fill="#FDFDFD" transform="translate(0,0)" data-index="0" style="opacity: 1; visibility: visible;"></path>
<path d="M0 0 C0.99 0.33 1.98 0.66 3 1 C3.52277945 2.98656191 4.01832019 4.982765 4.40625 7 C7.21508307 21.19199865 10.34656593 36.55183441 21 47 C22.01892127 48.33998761 23.01841452 49.69492649 24 51.0625 C27.06254788 55.05972158 30.42707419 58.48013643 34.125 61.875 C34.62773437 62.33914307 35.13046875 62.80328613 35.6484375 63.28149414 C37.9566515 65.3585071 40.19005756 67.11237736 42.8671875 68.6953125 C43.57101563 69.12585938 44.27484375 69.55640625 45 70 C45 70.66 45 71.32 45 72 C45.66386719 72.18175781 46.32773438 72.36351563 47.01171875 72.55078125 C47.89472656 72.80214844 48.77773437 73.05351563 49.6875 73.3125 C50.55761719 73.55613281 51.42773438 73.79976563 52.32421875 74.05078125 C55 75 55 75 57.28125 76.4140625 C60.95440377 78.55673553 64.77815422 79.75991602 68.8125 81.0625 C69.58142578 81.31837891 70.35035156 81.57425781 71.14257812 81.83789062 C77.80422274 84.02470899 84.40831183 86.04709931 91.4375 86.5625 C95.8960396 86.8960396 95.8960396 86.8960396 97 88 C97 89.65 97 91.3 97 93 C85.615 93.99 85.615 93.99 74 95 C74 95.66 74 96.32 74 97 C73.13117188 97.23074219 72.26234375 97.46148437 71.3671875 97.69921875 C64.6369654 99.60385655 60.10540294 101.27750228 55 106 C52.125 106.8125 52.125 106.8125 50 107 C49.67 107.99 49.34 108.98 49 110 C48.27167969 110.29003906 47.54335937 110.58007812 46.79296875 110.87890625 C37.40663127 114.64656899 24.54292999 128.63159224 20.3125 137.5625 C19.879375 138.696875 19.44625 139.83125 19 141 C16.84477529 144.46265961 14.61588878 147.86723681 12 151 C11.34 151 10.68 151 10 151 C9.70996094 152.03060547 9.70996094 152.03060547 9.4140625 153.08203125 C9.02347656 154.43361328 9.02347656 154.43361328 8.625 155.8125 C8.36976562 156.70582031 8.11453125 157.59914062 7.8515625 158.51953125 C7 161 7 161 5 164 C4.67 165.19625 4.34 166.3925 4 167.625 C3.67 168.73875 3.34 169.8525 3 171 C2.34 171.33 1.68 171.66 1 172 C-1.57886807 165.94526627 -2.61020794 160.55925943 -3 154 C-3.66 154 -4.32 154 -5 154 C-5.12117188 153.40832031 -5.24234375 152.81664062 -5.3671875 152.20703125 C-6.26744643 147.96196415 -7.20456621 143.97560339 -9 140 C-9.66 140 -10.32 140 -11 140 C-12.52227101 137.92279753 -13.95476018 135.83280962 -15.375 133.6875 C-21.05503137 125.39803895 -29.58194223 114.60634462 -39.3125 111.1875 C-41.90177412 110.04340213 -43.20289591 109.01136151 -45.25 107.125 C-49.17142285 103.65604902 -53.17034842 101.91786164 -58 100 C-59.11632812 99.50242187 -60.23265625 99.00484375 -61.3828125 98.4921875 C-69.27651513 95.03843087 -76.35204951 93.19999608 -84.953125 92.51953125 C-88.11677118 91.98008902 -89.11978726 91.52738741 -91 89 C-86.12941407 87.63623594 -81.46757151 86.80953122 -76.4375 86.25 C-63.4494598 84.4422428 -53.20786555 79.14320933 -43 71 C-41.46610536 69.84684236 -39.92940365 68.69741353 -38.390625 67.55078125 C-36.7389441 66.30553492 -35.08790514 65.05943669 -33.4375 63.8125 C-32.23903442 62.92111328 -32.23903442 62.92111328 -31.01635742 62.01171875 C-30.26717041 61.43679687 -29.5179834 60.861875 -28.74609375 60.26953125 C-27.73567017 59.50539917 -27.73567017 59.50539917 -26.70483398 58.72583008 C-24.65744165 56.65322283 -23.95856732 54.72753225 -23 52 C-21.6328125 49.97265625 -21.6328125 49.97265625 -20.125 48.0625 C-18.2086752 45.59932154 -16.41120005 43.14168279 -14.75 40.5 C-14.1725 39.675 -13.595 38.85 -13 38 C-12.34 38 -11.68 38 -11 38 C-10.82984375 37.46632812 -10.6596875 36.93265625 -10.484375 36.3828125 C-8.34717458 29.81205801 -6.09520487 23.19040973 -3 17 C-2.76901279 13.80284373 -2.60514258 10.61286733 -2.48242188 7.41015625 C-2.21400469 2.21400469 -2.21400469 2.21400469 0 0 Z " fill="#14048E" transform="translate(102,7)" data-index="1" style="opacity: 1; visibility: visible;"></path>
<path d="M0 0 C1 1 1 1 1.875 4.8125 C1.86244133 8.75592331 1.03338936 9.96192617 -1.6171875 12.984375 C-4.44173149 15.64177369 -7.40129215 18.13753099 -10.38037109 20.61914062 C-12.47699704 22.406677 -14.39793522 24.33270956 -16.3125 26.3125 C-18.67523314 28.72340472 -21.09641502 30.98229882 -23.66796875 33.16796875 C-28.3383147 37.22672818 -32.66387735 41.58988209 -37 46 C-41.88137691 50.96467686 -46.80147881 55.75818691 -52.08447266 60.29394531 C-55.93609816 63.72437598 -59.4449804 67.52012121 -62.97460938 71.27734375 C-68.34309041 76.80705836 -68.34309041 76.80705836 -73 77 C-72.4163354 72.64845617 -71.34353261 68.9734478 -69.625 64.9375 C-69.20476562 63.93589844 -68.78453125 62.93429688 -68.3515625 61.90234375 C-67.06331969 59.13597263 -65.58517328 56.6035807 -64 54 C-63.67 53.113125 -63.34 52.22625 -63 51.3125 C-62 49 -62 49 -59 47 C-57.78715124 43.94570927 -57.78715124 43.94570927 -57 41 C-56.34 41 -55.68 41 -55 41 C-54.9071875 40.27296875 -54.814375 39.5459375 -54.71875 38.796875 C-51.52164297 26.35595853 -35.08463859 14.74646893 -25 8 C-22.678383 6.7839149 -20.47135154 5.89389311 -18 5 C-17.01 4.34 -16.02 3.68 -15 3 C-13.39327035 2.40632701 -11.7652488 1.86857031 -10.125 1.375 C-9.28195313 1.11460937 -8.43890625 0.85421875 -7.5703125 0.5859375 C-4.93980801 -0.01372158 -2.68816662 -0.17796225 0 0 Z " fill="#13078B" transform="translate(198,134)" data-index="2" style="opacity: 1; visibility: visible;"></path>
<path d="M0 0 C2.97 0 5.94 0 9 0 C9 0.66 9 1.32 9 2 C9.99 2.33 10.98 2.66 12 3 C12.47252197 3.47638916 12.94504395 3.95277832 13.43188477 4.44360352 C15.22138049 6.21972609 16.76656666 6.94431029 19.08984375 7.90234375 C19.87423828 8.23556641 20.65863281 8.56878906 21.46679688 8.91210938 C23.10921819 9.59374668 24.75244504 10.27344637 26.39648438 10.95117188 C30.76982544 12.8131604 33.74711628 14.4423965 37 18 C40.63543901 19.27765265 40.63543901 19.27765265 44 20 C44 20.66 44 21.32 44 22 C44.99 22.33 45.98 22.66 47 23 C47.05807043 26.10408807 47.09361914 29.2080364 47.125 32.3125 C47.14175781 33.19357422 47.15851562 34.07464844 47.17578125 34.98242188 C47.18544922 36.25375977 47.18544922 36.25375977 47.1953125 37.55078125 C47.21102295 38.72120972 47.21102295 38.72120972 47.22705078 39.9152832 C47 42 47 42 45 45 C40.74650291 44.51733366 38.3696622 41.84503999 35.4375 39 C31.55450419 35.32607483 27.63013301 31.8251917 23.4375 28.5 C18.39816154 24.45977785 13.9591714 20.04677362 9.5078125 15.3828125 C7.12369429 13.11752885 4.80993951 11.66691327 2 10 C-0.4294516 6.3558226 -0.16179575 4.28758728 0 0 Z " fill="#1A0D8A" transform="translate(7,134)" data-index="3" style="visibility: visible; opacity: 1;"></path>
<path d="M0 0 C2.0625 0.4375 2.0625 0.4375 4 1 C-6.26569061 7.76033284 -18.01242876 10.38269893 -30.05078125 11.640625 C-32.92704602 11.82363119 -32.92704602 11.82363119 -35 13 C-32.16980947 14.41509527 -29.4616206 14.38147261 -26.3125 14.6875 C-13.53160736 16.19131644 -2.28003784 22.07640471 9 28 C6.18185434 29.40907283 4.82722796 28.50872691 1.875 27.5625 C0.50988281 27.13130859 0.50988281 27.13130859 -0.8828125 26.69140625 C-1.58148438 26.46324219 -2.28015625 26.23507813 -3 26 C-3 25.34 -3 24.68 -3 24 C-3.72445312 23.87882812 -4.44890625 23.75765625 -5.1953125 23.6328125 C-10.28497573 22.75060421 -15.14883346 21.83557653 -20 20 C-20 19.34 -20 18.68 -20 18 C-21.09699219 17.95101562 -22.19398437 17.90203125 -23.32421875 17.8515625 C-24.77866925 17.77649409 -26.23309516 17.70094803 -27.6875 17.625 C-28.40873047 17.5940625 -29.12996094 17.563125 -29.87304688 17.53125 C-33.97210394 17.30664413 -37.24368459 16.82259091 -41 15 C-40.67 13.35 -40.34 11.7 -40 10 C-36.44434672 8.81478224 -33.08165023 8.72966933 -29.375 8.5625 C-18.87010958 8.45343443 -18.87010958 8.45343443 -10 4 C-8.49903768 3.42440161 -6.97443718 2.90869583 -5.4375 2.4375 C-2.4574868 1.66788364 -2.4574868 1.66788364 0 0 Z " fill="#BBB4D6" transform="translate(47,84)" data-index="4" style="opacity: 1;"></path>
<path d="M0 0 C0.33 0 0.66 0 1 0 C1.81213487 3.74831477 2.08462072 5.38968972 1 9 C-2.46218671 12.95900274 -6.3464983 16.25887465 -10.38037109 19.61914062 C-12.47699704 21.406677 -14.39793522 23.33270956 -16.3125 25.3125 C-18.67523314 27.72340472 -21.09641502 29.98229882 -23.66796875 32.16796875 C-28.3383147 36.22672818 -32.66387735 40.58988209 -37 45 C-41.88137691 49.96467686 -46.80147881 54.75818691 -52.08447266 59.29394531 C-55.93609816 62.72437598 -59.4449804 66.52012121 -62.97460938 70.27734375 C-68.34309041 75.80705836 -68.34309041 75.80705836 -73 76 C-72.67 74.02 -72.34 72.04 -72 70 C-71.67 71.32 -71.34 72.64 -71 74 C-65.06762914 69.09934581 -59.65381052 63.73249842 -54.27685547 58.23974609 C-51.32134299 55.24046071 -48.31920729 52.37012072 -45.125 49.625 C-40.51491535 45.64558204 -36.26764344 41.34047012 -32 37 C-27.07878838 31.99480866 -22.11980003 27.14775557 -16.79492188 22.57226562 C-14.32785167 20.41123024 -12.03863425 18.09769578 -9.75 15.75 C-5.35263412 11.24059932 -5.35263412 11.24059932 -2.75 9.46484375 C-0.83625569 8.13642405 -0.83625569 8.13642405 -0.390625 5.95703125 C-0.34421875 5.24933594 -0.2978125 4.54164063 -0.25 3.8125 C-0.1675 2.554375 -0.085 1.29625 0 0 Z " fill="#7A6BB9" transform="translate(198,135)" data-index="5" style="visibility: visible; opacity: 1;"></path>
<path d="M0 0 C1.12507029 3.33720175 0.86296942 5.25087042 -0.25 8.5625 C-0.67152344 9.87347656 -0.67152344 9.87347656 -1.1015625 11.2109375 C-1.54628906 12.59152344 -1.54628906 12.59152344 -2 14 C-3.75130105 19.97406434 -5.31175248 25.80577234 -6 32 C-7.9375 32.5625 -7.9375 32.5625 -10 33 C-12.45575575 30.54424425 -11.99724525 25.13808186 -12.0625 21.8671875 C-12.0625 18.91078895 -12.04368552 15.95605356 -12 13 C-10.10786631 15.38573379 -8.97608217 17.07175348 -8 20 C-7.608125 18.741875 -7.21625 17.48375 -6.8125 16.1875 C-4.96115906 10.59787448 -2.51454474 5.31731793 0 0 Z " fill="#7A6EB2" transform="translate(112,158)" data-index="6"></path>
<path d="M0 0 C1.54895955 4.39704645 0.08684166 6.87203256 -1.83203125 10.90625 C-3.22953811 13.41147969 -4.91402629 15.03673062 -7 17 C-8.60394369 19.29016702 -10.1237126 21.62299219 -11.6328125 23.9765625 C-13 26 -13 26 -15 28 C-15.33837891 29.11761719 -15.33837891 29.11761719 -15.68359375 30.2578125 C-17.59303096 34.23533453 -20.59522122 36.24619144 -24.0625 38.875 C-24.73482666 39.39803711 -25.40715332 39.92107422 -26.09985352 40.45996094 C-28.05978795 41.98234066 -30.02944729 43.49140836 -32 45 C-33.81331823 46.41561919 -35.62600104 47.83205353 -37.4375 49.25 C-38.62410931 50.16781936 -39.81118892 51.08503429 -41 52 C-41.66 51.67 -42.32 51.34 -43 51 C-39.93508688 47.76603892 -36.64757246 45.14020469 -33.0625 42.5 C-21.87237207 34.23826206 -14.60083013 25.45880258 -7.6640625 13.4921875 C-7.11492187 12.66976562 -6.56578125 11.84734375 -6 11 C-5.34 11 -4.68 11 -4 11 C-3.81824219 10.06027344 -3.81824219 10.06027344 -3.6328125 9.1015625 C-3.38144531 7.87566406 -3.38144531 7.87566406 -3.125 6.625 C-2.96257812 5.81289063 -2.80015625 5.00078125 -2.6328125 4.1640625 C-2 2 -2 2 0 0 Z " fill="#A7A0D5" transform="translate(94,32)" data-index="7" style="visibility: visible; opacity: 1;"></path>
<path d="M0 0 C0.66 0.33 1.32 0.66 2 1 C1.46632812 1.40089844 0.93265625 1.80179688 0.3828125 2.21484375 C-17.38505188 14.9178303 -17.38505188 14.9178303 -28 33 C-28.66 33 -29.32 33 -30 33 C-30.268125 34.11375 -30.53625 35.2275 -30.8125 36.375 C-32 40 -32 40 -35 42 C-35.93015257 43.91807787 -35.93015257 43.91807787 -36.5625 46.0625 C-37.25390625 48.22265625 -37.25390625 48.22265625 -38 50 C-38.99 50.495 -38.99 50.495 -40 51 C-38 42.42857143 -38 42.42857143 -36 39 C-35.34 39 -34.68 39 -34 39 C-33.94714844 38.33355469 -33.89429688 37.66710937 -33.83984375 36.98046875 C-32.6426933 32.7319767 -30.23287812 29.77960852 -27.5625 26.3125 C-27.02117432 25.60351562 -26.47984863 24.89453125 -25.92211914 24.1640625 C-18.41816845 14.49489675 -10.12063298 6.88818747 0 0 Z " fill="#BBB6DE" transform="translate(171,142)" data-index="8" style="visibility: visible; opacity: 1;"></path>
<path d="M0 0 C0.66 0.33 1.32 0.66 2 1 C-1.14627614 4.29486511 -4.3119736 7.56930626 -7.49707031 10.82666016 C-8.57714676 11.93686471 -9.65177146 13.05240079 -10.72070312 14.17333984 C-12.26061318 15.78623821 -13.81928267 17.3787792 -15.3828125 18.96875 C-15.85494171 19.47184692 -16.32707092 19.97494385 -16.81350708 20.49328613 C-19.33717365 23.01943885 -20.69292409 23.9648014 -24.28857422 24.37695312 C-27 24 -27 24 -28 23 C-27.71269945 20.66055264 -27.38063221 18.3260857 -27 16 C-26.34 16 -25.68 16 -25 16 C-24.01 12.37 -23.02 8.74 -22 5 C-21.34 5 -20.68 5 -20 5 C-20.68936071 8.91121498 -21.78250181 12.55508596 -23.0625 16.3125 C-23.60583984 17.91544922 -23.60583984 17.91544922 -24.16015625 19.55078125 C-24.43730469 20.35902344 -24.71445313 21.16726562 -25 22 C-20.65787826 20.03753663 -17.58751256 17.94889981 -14.2578125 14.55078125 C-13.41992188 13.70322266 -12.58203125 12.85566406 -11.71875 11.98242188 C-10.43484375 10.66081055 -10.43484375 10.66081055 -9.125 9.3125 C-8.24585938 8.41982422 -7.36671875 7.52714844 -6.4609375 6.60742188 C-4.30033417 4.41159132 -2.14706603 2.20905565 0 0 Z " fill="#D1CBE2" transform="translate(150,189)" data-index="9"></path>
<path d="M0 0 C0.54398438 0.24363281 1.08796875 0.48726562 1.6484375 0.73828125 C0.99875 1.22039062 0.3490625 1.7025 -0.3203125 2.19921875 C-1.57328125 3.14667969 -1.57328125 3.14667969 -2.8515625 4.11328125 C-3.686875 4.73976562 -4.5221875 5.36625 -5.3828125 6.01171875 C-6.0325 6.58148438 -6.6821875 7.15125 -7.3515625 7.73828125 C-7.3515625 8.39828125 -7.3515625 9.05828125 -7.3515625 9.73828125 C-11.29641273 14.06366366 -16.20016576 16.96656967 -21.3359375 19.66015625 C-23.56445914 20.81038233 -23.56445914 20.81038233 -26.3515625 22.73828125 C-23.46351444 15.95292102 -8.32241104 -0.92624841 0 0 Z " fill="#4333A4" transform="translate(175.3515625,142.26171875)" data-index="10" style="opacity: 1;"></path>
<path d="M0 0 C2.29141286 -0.05384521 4.58318188 -0.09272087 6.875 -0.125 C8.78925781 -0.15980469 8.78925781 -0.15980469 10.7421875 -0.1953125 C14 0 14 0 16 2 C16.125 5.625 16.125 5.625 16 9 C14.78376953 9.18175781 14.78376953 9.18175781 13.54296875 9.3671875 C7.13896724 10.33636119 0.75869722 11.37621777 -5.609375 12.55859375 C-8.40070765 13.07398687 -11.19812354 13.54564166 -14 14 C-13.34 13.34 -12.68 12.68 -12 12 C-11.01 12 -10.02 12 -9 12 C-9 11.34 -9 10.68 -9 10 C-6.2097333 9.0699111 -4.23470458 8.81301231 -1.33203125 8.68359375 C-0.43935547 8.64169922 0.45332031 8.59980469 1.37304688 8.55664062 C2.30181641 8.51732422 3.23058594 8.47800781 4.1875 8.4375 C5.59805664 8.37272461 5.59805664 8.37272461 7.03710938 8.30664062 C9.35792854 8.20061335 11.67885325 8.09854971 14 8 C13.67 6.35 13.34 4.7 13 3 C8.71 2.34 4.42 1.68 0 1 C0 0.67 0 0.34 0 0 Z " fill="#CCC7E1" transform="translate(185,92)" data-index="11"></path>
<path d="M0 0 C5.80205656 5.64524422 5.80205656 5.64524422 8 9 C8 9.66 8 10.32 8 11 C8.66 11 9.32 11 10 11 C13.44935617 15.27720165 13.6663273 19.71876659 14 25 C14.66 25 15.32 25 16 25 C17.60725635 28.21451269 17.05748185 31.43612536 17 35 C14.79168118 32.79168118 14.3885542 31.50342124 13.5 28.5625 C12.58317446 25.53797225 11.79028536 23.68542804 10 21 C9.46083854 18.3397977 9.26629902 15.70737337 9 13 C8.01 12.67 7.02 12.34 6 12 C4.39453125 10.29296875 4.39453125 10.29296875 2.8125 8.1875 C2.28269531 7.50042969 1.75289063 6.81335938 1.20703125 6.10546875 C0 4 0 4 0 0 Z " fill="#AEA7D2" transform="translate(83,136)" data-index="12" style="visibility: visible; opacity: 1;"></path>
<path d="M0 0 C4.39955934 0.54994492 8.50946307 1.39037258 12.8046875 2.52734375 C16.17327388 3.25260879 19.56424679 3.49717266 22.99609375 3.75390625 C25 4 25 4 26 5 C26 6.65 26 8.3 26 10 C20.06 10.495 20.06 10.495 14 11 C15.65 9.35 17.3 7.7 19 6 C17.906875 5.9175 16.81375 5.835 15.6875 5.75 C10.15870322 5.08495622 5.15005376 3.03540728 0 1 C0 0.67 0 0.34 0 0 Z " fill="#564BAD" transform="translate(173,90)" data-index="13"></path>
<path d="M0 0 C2.97 0 5.94 0 9 0 C9 0.66 9 1.32 9 2 C9.99 2.33 10.98 2.66 12 3 C8.18510326 4.46726798 5.70988378 3.43336419 2 2 C2.63099646 5.42003741 2.63099646 5.42003741 4 9 C5.66026356 10.01059521 7.32849085 11.00811545 9 12 C11.37865407 14.12368349 13.59080878 16.40141193 15.8125 18.6875 C16.40998047 19.29400391 17.00746094 19.90050781 17.62304688 20.52539062 C19.08664185 22.01240312 20.54396102 23.50558811 22 25 C19 25 19 25 16.2578125 22.48046875 C15.20599582 21.39004108 14.1620041 20.29202402 13.125 19.1875 C9.60646927 15.46277109 6.46554344 12.59063757 2 10 C-0.4294516 6.3558226 -0.16179575 4.28758728 0 0 Z " fill="#786BB4" transform="translate(7,134)" data-index="14"></path>
<path d="M0 0 C0.99 0.33 1.98 0.66 3 1 C3.5216605 2.9823099 4.01578911 4.97451304 4.3984375 6.98828125 C5.15542728 10.77814566 6.10658924 14.50619407 7.0625 18.25 C8.14091033 22.48252418 9.19270844 26.70554181 10 31 C3.3933503 25.05401527 2.99620127 17.45733373 2 9 C1.87669685 6.63026766 1.88967384 4.37201245 2 2 C1.01 2.495 1.01 2.495 0 3 C-0.65772428 6.02934491 -0.65772428 6.02934491 -1 9 C-1.33 9 -1.66 9 -2 9 C-2.125 5.625 -2.125 5.625 -2 2 C-1.34 1.34 -0.68 0.68 0 0 Z " fill="#887DC0" transform="translate(102,7)" data-index="15"></path>
<path d="M0 0 C0.33 0 0.66 0 1 0 C1.42691034 8.44333791 1.63421641 14.75903687 -3 22 C-3.33 22 -3.66 22 -4 22 C-4.44503049 14.13779467 -2.47102857 7.4130857 0 0 Z " fill="#D2CFE6" transform="translate(99,10)" data-index="16"></path>
<path d="M0 0 C2.475 0.495 2.475 0.495 5 1 C5 1.66 5 2.32 5 3 C5.99 3.33 6.98 3.66 8 4 C8.05807043 7.10408807 8.09361914 10.2080364 8.125 13.3125 C8.14175781 14.19357422 8.15851562 15.07464844 8.17578125 15.98242188 C8.18222656 16.82998047 8.18867187 17.67753906 8.1953125 18.55078125 C8.20578613 19.33106689 8.21625977 20.11135254 8.22705078 20.9152832 C8 23 8 23 6 26 C4.125 25.6875 4.125 25.6875 2 25 C1.34 24.01 0.68 23.02 0 22 C1.98 22.33 3.96 22.66 6 23 C6 17.06 6 11.12 6 5 C5.01 4.67 4.02 4.34 3 4 C3 3.34 3 2.68 3 2 C2.01 1.67 1.02 1.34 0 1 C0 0.67 0 0.34 0 0 Z " fill="#7061B0" transform="translate(46,153)" data-index="17"></path>
<path d="M0 0 C1.12507029 3.33720175 0.86296942 5.25087042 -0.25 8.5625 C-1.4901569 12.39727086 -2.63796295 16.23317602 -3.6875 20.125 C-3.93886719 21.05570313 -4.19023438 21.98640625 -4.44921875 22.9453125 C-4.63097656 23.62335938 -4.81273438 24.30140625 -5 25 C-5.33 25 -5.66 25 -6 25 C-6.49184388 16.925563 -5.92434744 11.10392821 -2 4 C-1.32963735 2.66852107 -0.66189201 1.33571 0 0 Z " fill="#C0B8DC" transform="translate(112,158)" data-index="18"></path>
<path d="M0 0 C1.24546405 2.49092811 0.7767578 3.41080733 0 6 C-0.66 6 -1.32 6 -2 6 C-2.268125 7.11375 -2.53625 8.2275 -2.8125 9.375 C-4 13 -4 13 -7 15 C-7.93015257 16.91807787 -7.93015257 16.91807787 -8.5625 19.0625 C-9.25390625 21.22265625 -9.25390625 21.22265625 -10 23 C-10.66 23.33 -11.32 23.66 -12 24 C-10 15.42857143 -10 15.42857143 -8 12 C-7.34 12 -6.68 12 -6 12 C-5.938125 11.319375 -5.87625 10.63875 -5.8125 9.9375 C-4.71461145 5.96821063 -2.50976025 3.21360445 0 0 Z " fill="#AFA6D7" transform="translate(143,169)" data-index="19" style="opacity: 1;"></path>
<path d="M0 0 C2.0625 0.4375 2.0625 0.4375 4 1 C-5.2928328 7.11967038 -16.82196875 11.18355625 -28 10 C-28 9.67 -28 9.34 -28 9 C-26.86820313 8.80664062 -25.73640625 8.61328125 -24.5703125 8.4140625 C-23.08846798 8.15145714 -21.60670108 7.88841352 -20.125 7.625 C-19.00544922 7.43550781 -19.00544922 7.43550781 -17.86328125 7.2421875 C-13.49009468 6.54731306 -13.49009468 6.54731306 -10 4 C-8.49903768 3.42440161 -6.97443718 2.90869583 -5.4375 2.4375 C-2.4574868 1.66788364 -2.4574868 1.66788364 0 0 Z " fill="#A79FD4" transform="translate(47,84)" data-index="20" style="opacity: 1;"></path>
<path d="M0 0 C0.042721 1.66611905 0.04063832 3.33382885 0 5 C-1 6 -1 6 -4.0625 6.0625 C-5.5165625 6.0315625 -5.5165625 6.0315625 -7 6 C-6.625 3.0625 -6.625 3.0625 -6 0 C-3.50907189 -1.24546405 -2.58919267 -0.7767578 0 0 Z " fill="#938BBC" transform="translate(86,206)" data-index="21"></path>
<path d="M0 0 C2.13671875 0.38671875 2.13671875 0.38671875 4 1 C3.3503125 1.48210937 2.700625 1.96421875 2.03125 2.4609375 C0.77828125 3.40839844 0.77828125 3.40839844 -0.5 4.375 C-1.3353125 5.00148437 -2.170625 5.62796875 -3.03125 6.2734375 C-4.00578125 7.12808594 -4.00578125 7.12808594 -5 8 C-5 8.66 -5 9.32 -5 10 C-6.53125 11.5078125 -6.53125 11.5078125 -8.5 13.125 C-9.1496875 13.66382813 -9.799375 14.20265625 -10.46875 14.7578125 C-10.9740625 15.16773438 -11.479375 15.57765625 -12 16 C-12.66 15.67 -13.32 15.34 -14 15 C-11.78272736 12.51221043 -9.55814658 10.03183416 -7.3203125 7.5625 C-6.01040165 6.11586444 -4.70758746 4.66248901 -3.4296875 3.1875 C-2.1875 1.8125 -2.1875 1.8125 0 0 Z " fill="#2C1F98" transform="translate(173,142)" data-index="22"></path>
<path d="M0 0 C0 0.99 0 1.98 0 3 C-1.65788785 4.34423339 -3.32576317 5.67618483 -5 7 C-6.69882448 9.49759982 -6.69882448 9.49759982 -8 12 C-8.99 13.485 -8.99 13.485 -10 15 C-10.66 15 -11.32 15 -12 15 C-11.71125 14.443125 -11.4225 13.88625 -11.125 13.3125 C-9.94831521 10.99356912 -9.94831521 10.99356912 -9.0625 8.4375 C-7.14202878 4.03171309 -4.10448534 2.32957276 0 0 Z " fill="#0F0485" transform="translate(158,158)" data-index="23"></path>
<path d="M0 0 C0.703125 1.68359375 0.703125 1.68359375 1 4 C-0.328125 6.47265625 -0.328125 6.47265625 -2.25 9.0625 C-2.87390625 9.91972656 -3.4978125 10.77695313 -4.140625 11.66015625 C-5.67265789 13.58807158 -7.21043947 15.31538284 -9 17 C-8.43310319 12.6852854 -6.88294703 9.86348525 -4.5 6.25 C-3.55640625 4.80367187 -3.55640625 4.80367187 -2.59375 3.328125 C-1 1 -1 1 0 0 Z " fill="#8677C0" transform="translate(122,141)" data-index="24" style="opacity: 1; visibility: visible;"></path>
<path d="M0 0 C5.04424468 0.44508041 7.44443409 2.60980925 11 6 C11 6.66 11 7.32 11 8 C12.32 8.33 13.64 8.66 15 9 C15 9.66 15 10.32 15 11 C13.02 10.34 11.04 9.68 9 9 C9 8.34 9 7.68 9 7 C8.2575 6.773125 7.515 6.54625 6.75 6.3125 C3.48860409 4.75592468 2.07105025 2.91481146 0 0 Z " fill="#958FCD" transform="translate(138,70)" data-index="25" style="opacity: 1;"></path>
<path d="M0 0 C-3.03031033 1.51515517 -6.2986971 1.64824641 -9.625 2.0625 C-10.33140625 2.15337891 -11.0378125 2.24425781 -11.765625 2.33789062 C-13.5100041 2.56183119 -15.25495134 2.78133818 -17 3 C-15.35 3.33 -13.7 3.66 -12 4 C-12 4.33 -12 4.66 -12 5 C-18.52307692 5.36923077 -18.52307692 5.36923077 -20.9375 3.5 C-21.4634375 2.7575 -21.4634375 2.7575 -22 2 C-7.05378225 -2.15172715 -7.05378225 -2.15172715 0 0 Z " fill="#5346A7" transform="translate(33,94)" data-index="26"></path>
<path d="M0 0 C7.34000958 0.7528215 13.85702354 4.03678938 20 8 C17.18185434 9.40907283 15.82722796 8.50872691 12.875 7.5625 C11.96492188 7.27503906 11.05484375 6.98757812 10.1171875 6.69140625 C9.06917969 6.34916016 9.06917969 6.34916016 8 6 C8 5.34 8 4.68 8 4 C7.4225 3.896875 6.845 3.79375 6.25 3.6875 C3.67950842 2.90207202 2.06342716 1.69495803 0 0 Z " fill="#998EC2" transform="translate(36,104)" data-index="27"></path>
<path d="M0 0 C2.49133698 0.36791896 3.67585001 0.5923267 5.2734375 2.6015625 C5.81871094 3.60316406 5.81871094 3.60316406 6.375 4.625 C8.82378158 8.85124609 11.72113492 12.39437517 15 16 C11.66026243 14.55053895 9.47695341 12.71827612 6.9375 10.125 C6.26589844 9.44695313 5.59429687 8.76890625 4.90234375 8.0703125 C0 2.73511294 0 2.73511294 0 0 Z " fill="#A6A1D4" transform="translate(123,54)" data-index="28"></path>
<path d="M0 0 C4 4.625 4 4.625 4 8 C4.66 8 5.32 8 6 8 C7.60725635 11.21451269 7.05748185 14.43612536 7 18 C4.79168118 15.79168118 4.3885542 14.50342124 3.5 11.5625 C2.58317446 8.53797225 1.79028536 6.68542804 0 4 C0 2.68 0 1.36 0 0 Z " fill="#ADA7D3" transform="translate(93,153)" data-index="29"></path>
<path d="M0 0 C4.84659077 0.59104765 8.60748167 1.97944157 13 4 C13 4.66 13 5.32 13 6 C13.99 6.33 14.98 6.66 16 7 C16.33 7.99 16.66 8.98 17 10 C14.5625 9.1875 14.5625 9.1875 12 8 C11.67 7.01 11.34 6.02 11 5 C8.96722527 4.04882642 8.96722527 4.04882642 6.5625 3.4375 C2.19730942 2.19730942 2.19730942 2.19730942 0 0 Z " fill="#AFA8D8" transform="translate(29,143)" data-index="30"></path>
<path d="M0 0 C0.66 0 1.32 0 2 0 C0.79771302 5.10971967 -0.57408286 7.93172339 -4 12 C-5.24016669 14.6794645 -5.24016669 14.6794645 -6 17 C-6.66 17 -7.32 17 -8 17 C-7.57576756 15.53775201 -7.13509755 14.08026588 -6.6875 12.625 C-6.44386719 11.81289062 -6.20023438 11.00078125 -5.94921875 10.1640625 C-5 8 -5 8 -2 6 C-0.78715124 2.94570927 -0.78715124 2.94570927 0 0 Z " fill="#3E2D9E" transform="translate(141,175)" data-index="31"></path>
<path d="M0 0 C0.33 0 0.66 0 1 0 C1.33 5.61 1.66 11.22 2 17 C2.99 17 3.98 17 5 17 C5.33 16.01 5.66 15.02 6 14 C6 15.65 6 17.3 6 19 C4.0625 19.5625 4.0625 19.5625 2 20 C-0.45575575 17.54424425 0.00275475 12.13808186 -0.0625 8.8671875 C-0.0625 5.91078895 -0.04368552 2.95605356 0 0 Z " fill="#C3BDD8" transform="translate(100,171)" data-index="32"></path>
<path d="M0 0 C0.66 0.33 1.32 0.66 2 1 C0.68 1.33 -0.64 1.66 -2 2 C-2 2.66 -2 3.32 -2 4 C-4.1171875 5.54296875 -4.1171875 5.54296875 -6.875 7.1875 C-7.77992188 7.73792969 -8.68484375 8.28835937 -9.6171875 8.85546875 C-10.40351563 9.23316406 -11.18984375 9.61085937 -12 10 C-12.66 9.67 -13.32 9.34 -14 9 C-9.62405356 4.89006854 -5.7331256 1.91104187 0 0 Z " fill="#090283" transform="translate(181,141)" data-index="33"></path>
<path d="M0 0 C0.66 0.33 1.32 0.66 2 1 C-2.24860632 6.2042199 -6.36629298 10.32084439 -12 14 C-10.41332422 10.09714233 -7.86649519 7.66479018 -4.875 4.75 C-3.96492187 3.85796875 -3.05484375 2.9659375 -2.1171875 2.046875 C-1.41851562 1.37140625 -0.71984375 0.6959375 0 0 Z " fill="#DDD9E7" transform="translate(142,121)" data-index="34"></path>
<path d="M0 0 C2.64 0 5.28 0 8 0 C8 0.33 8 0.66 8 1 C5.69 1.66 3.38 2.32 1 3 C3.56893838 4.28446919 5.76576337 4.32977144 8.625 4.5625 C10.12933594 4.68818359 10.12933594 4.68818359 11.6640625 4.81640625 C12.43492188 4.87699219 13.20578125 4.93757813 14 5 C14 5.33 14 5.66 14 6 C12.08364783 6.05423638 10.16685075 6.09289963 8.25 6.125 C6.64898438 6.15980469 6.64898438 6.15980469 5.015625 6.1953125 C2.07529894 6.00487687 0.47638122 5.52670104 -2 4 C-1.34 2.68 -0.68 1.36 0 0 Z " fill="#8E84C1" transform="translate(11,94)" data-index="35"></path>
<path d="M0 0 C1.99954746 -0.04254356 4.00041636 -0.04080783 6 0 C7 1 7 1 7 6 C1.06 6.495 1.06 6.495 -5 7 C-2 5 -2 5 1.125 4.5 C2.07375 4.335 3.0225 4.17 4 4 C4.33 3.34 4.66 2.68 5 2 C3.35 1.67 1.7 1.34 0 1 C0 0.67 0 0.34 0 0 Z " fill="#786BBA" transform="translate(192,94)" data-index="36"></path>
<path d="M0 0 C0.66 0 1.32 0 2 0 C2 2.31 2 4.62 2 7 C1.34 7 0.68 7 0 7 C-0.33 9.64 -0.66 12.28 -1 15 C-1.33 15 -1.66 15 -2 15 C-2.19392201 9.47322267 -1.7479503 5.24385089 0 0 Z " fill="#4A399D" transform="translate(102,9)" data-index="37"></path>
<path d="M0 0 C-2.59980631 2.13555518 -4.60171245 3.7001511 -8 4 C-11.25 3.0625 -11.25 3.0625 -14 2 C-14 1.67 -14 1.34 -14 1 C-9.27685687 0.22887459 -4.78478822 -0.09764874 0 0 Z " fill="#23178A" transform="translate(29,95)" data-index="38"></path>
<path d="M0 0 C1.8871875 0.0309375 1.8871875 0.0309375 3.8125 0.0625 C1.22838269 1.78524487 -0.73652656 2.75145522 -3.625 3.75 C-4.38683594 4.02199219 -5.14867187 4.29398437 -5.93359375 4.57421875 C-8.40579721 5.10979142 -9.81733284 4.86695309 -12.1875 4.0625 C-10.5375 3.7325 -8.8875 3.4025 -7.1875 3.0625 C-7.1875 2.4025 -7.1875 1.7425 -7.1875 1.0625 C-4.43671116 0.14557039 -2.82801087 -0.04636083 0 0 Z " fill="#9185C5" transform="translate(183.1875,100.9375)" data-index="39"></path>
<path d="M0 0 C0 3 0 3 -1.42578125 4.60546875 C-2.35970703 5.38857422 -2.35970703 5.38857422 -3.3125 6.1875 C-3.92738281 6.71730469 -4.54226562 7.24710938 -5.17578125 7.79296875 C-7 9 -7 9 -10 9 C-9.67 7.02 -9.34 5.04 -9 3 C-8.67 4.32 -8.34 5.64 -8 7 C-4.04 3.535 -4.04 3.535 0 0 Z " fill="#6D60B1" transform="translate(135,202)" data-index="40"></path>
<path d="M0 0 C3 3.625 3 3.625 3 7 C3.66 7 4.32 7 5 7 C5.33 6.34 5.66 5.68 6 5 C5.625 7.9375 5.625 7.9375 5 11 C4.01 11.495 4.01 11.495 3 12 C2.49166409 10.75336669 1.99368855 9.50250613 1.5 8.25 C1.2215625 7.55390625 0.943125 6.8578125 0.65625 6.140625 C0 4 0 4 0 0 Z " fill="#4F429F" transform="translate(100,167)" data-index="41"></path>
<path d="M0 0 C2.97 0 5.94 0 9 0 C9 0.66 9 1.32 9 2 C9.99 2.33 10.98 2.66 12 3 C10.68 3.33 9.36 3.66 8 4 C7.67 3.01 7.34 2.02 7 1 C5.02 1 3.04 1 1 1 C1 2.98 1 4.96 1 7 C0.67 7 0.34 7 0 7 C0 4.69 0 2.38 0 0 Z " fill="#B4ACD7" transform="translate(7,134)" data-index="42"></path>
<path d="M0 0 C0.66 0 1.32 0 2 0 C1.27991594 4.60853797 -0.31295939 8.67237409 -2 13 C-3.18771723 9.57056481 -2.80226223 7.62215325 -1.5625 4.25 C-1.27503906 3.45078125 -0.98757812 2.6515625 -0.69140625 1.828125 C-0.46324219 1.22484375 -0.23507813 0.6215625 0 0 Z " fill="#B7ADDB" transform="translate(128,194)" data-index="43"></path>
<path d="M0 0 C-1.24176695 0.70226141 -2.49385599 1.38629109 -3.75 2.0625 C-4.79414063 2.63677734 -4.79414063 2.63677734 -5.859375 3.22265625 C-8.36140628 4.1312406 -9.5332355 3.88336837 -12 3 C-7.79239174 -0.45624965 -5.25129814 -1.44410699 0 0 Z " fill="#A195CB" transform="translate(171,107)" data-index="44"></path>
<path d="M0 0 C2.84383123 1.2748209 5.13754018 2.45137078 7 5 C6.6875 7.1875 6.6875 7.1875 6 9 C5.67 8.01 5.34 7.02 5 6 C4.34 5.690625 3.68 5.38125 3 5.0625 C1 4 1 4 0.25 1.875 C0.1675 1.25625 0.085 0.6375 0 0 Z " fill="#9E97CE" transform="translate(116,45)" data-index="45"></path>
<path d="M0 0 C0.93045933 2.55144824 1.08564091 3.74006478 0.22265625 6.359375 C-0.16019531 7.14828125 -0.54304688 7.9371875 -0.9375 8.75 C-1.50791016 9.94882812 -1.50791016 9.94882812 -2.08984375 11.171875 C-2.39019531 11.77515625 -2.69054687 12.3784375 -3 13 C-4.10096216 9.73381227 -3.9223497 7.98446051 -2.625 4.8125 C-2.34914063 4.11769531 -2.07328125 3.42289063 -1.7890625 2.70703125 C-1 1 -1 1 0 0 Z " fill="#A599D2" transform="translate(94,32)" data-index="46"></path>
<path d="M0 0 C0.57234375 0.21527344 1.1446875 0.43054688 1.734375 0.65234375 C-0.91301416 2.11297225 -2.16010834 2.65234375 -5.265625 2.65234375 C-5.595625 3.64234375 -5.925625 4.63234375 -6.265625 5.65234375 C-7.585625 5.32234375 -8.905625 4.99234375 -10.265625 4.65234375 C-9.02618224 3.78292881 -7.77355441 2.93228918 -6.515625 2.08984375 C-5.81953125 1.61417969 -5.1234375 1.13851562 -4.40625 0.6484375 C-2.265625 -0.34765625 -2.265625 -0.34765625 0 0 Z " fill="#8170BC" transform="translate(157.265625,111.34765625)" data-index="47"></path>
<path d="M0 0 C1.9451 2.91765 2.45276317 4.62537285 3 8 C3.99 8.33 4.98 8.66 6 9 C5.67 10.32 5.34 11.64 5 13 C1.68441485 8.61487125 0.45003347 5.62541841 0 0 Z " fill="#544AA9" transform="translate(106,25)" data-index="48"></path>
<path d="M0 0 C0.33 0 0.66 0 1 0 C1.02712066 1.43739513 1.04645067 2.87493863 1.0625 4.3125 C1.07410156 5.11300781 1.08570312 5.91351563 1.09765625 6.73828125 C1 9 1 9 0 12 C-0.99 12 -1.98 12 -3 12 C-3 10.35 -3 8.7 -3 7 C-2.01 7.495 -2.01 7.495 -1 8 C-0.67 5.36 -0.34 2.72 0 0 Z " fill="#9C93C3" transform="translate(105,176)" data-index="49"></path>
<path d="M0 0 C3.24208567 0.35049575 4.61527704 0.56221181 6.8125 3.0625 C7.204375 3.701875 7.59625 4.34125 8 5 C4.75791433 4.64950425 3.38472296 4.43778819 1.1875 1.9375 C0.795625 1.298125 0.40375 0.65875 0 0 Z " fill="#B9B4DB" transform="translate(138,70)" data-index="50" style="visibility: visible; opacity: 1;"></path>
<path d="M0 0 C0.88336837 2.4667645 1.1312406 3.63859372 0.22265625 6.140625 C-0.16019531 6.83671875 -0.54304688 7.5328125 -0.9375 8.25 C-1.31777344 8.95640625 -1.69804688 9.6628125 -2.08984375 10.390625 C-2.39019531 10.92171875 -2.69054687 11.4528125 -3 12 C-3.88336837 9.5332355 -4.1312406 8.36140628 -3.22265625 5.859375 C-2.83980469 5.16328125 -2.45695312 4.4671875 -2.0625 3.75 C-1.68222656 3.04359375 -1.30195312 2.3371875 -0.91015625 1.609375 C-0.60980469 1.07828125 -0.30945313 0.5471875 0 0 Z " fill="#9185C7" transform="translate(99,20)" data-index="51"></path>
<path d="M0 0 C0.33 1.32 0.66 2.64 1 4 C-0.98 5.32 -2.96 6.64 -5 8 C-3.62845496 5.04590299 -2.01136276 2.55991624 0 0 Z " fill="#5948AE" transform="translate(148,165)" data-index="52" style="visibility: visible; opacity: 1;"></path>
<path d="M0 0 C0.66 0 1.32 0 2 0 C5.11450382 4.15267176 5.11450382 4.15267176 4.6875 7.3125 C4.460625 7.869375 4.23375 8.42625 4 9 C0 2.25 0 2.25 0 0 Z " fill="#6658B1" transform="translate(91,147)" data-index="53" style="visibility: visible; opacity: 1;"></path>
<path d="M0 0 C3.95820859 0.56545837 6.6659053 1.80902348 10 4 C9.01 4.495 9.01 4.495 8 5 C6.0546875 4.22265625 6.0546875 4.22265625 3.875 3.0625 C3.15054687 2.68222656 2.42609375 2.30195313 1.6796875 1.91015625 C1.12539063 1.60980469 0.57109375 1.30945313 0 1 C0 0.67 0 0.34 0 0 Z " fill="#B4ADDC" transform="translate(19,138)" data-index="54"></path>
<path d="M0 0 C3.36591866 1.44253657 5.51047079 3.33264727 8 6 C5.69 5.34 3.38 4.68 1 4 C0.67 2.68 0.34 1.36 0 0 Z " fill="#B7B0D1" transform="translate(63,118)" data-index="55"></path>
<path d="M0 0 C3.9492568 0.55105909 7.34920174 1.38935371 11 3 C8.83032311 3.95465783 7.43671207 4.14401212 5.17578125 3.3984375 C3.4315257 2.64129615 1.71372869 1.82390802 0 1 C0 0.67 0 0.34 0 0 Z " fill="#7F75C7" transform="translate(162,86)" data-index="56"></path>
<path d="M0 0 C0.556875 0.226875 1.11375 0.45375 1.6875 0.6875 C-5.0625 4.6875 -5.0625 4.6875 -7.3125 4.6875 C-7.3125 4.0275 -7.3125 3.3675 -7.3125 2.6875 C-3.15982824 -0.42700382 -3.15982824 -0.42700382 0 0 Z " fill="#9085CA" transform="translate(49.3125,84.3125)" data-index="57"></path>
<path d="M0 0 C3.77545388 1.09068668 6.47043472 1.9083091 9 5 C5.65626525 4.44271087 2.96687001 3.64826111 0 2 C0 1.34 0 0.68 0 0 Z " fill="#685FBB" transform="translate(153,81)" data-index="58"></path>
<path d="M0 0 C1.65 0 3.3 0 5 0 C4.67 0.99 4.34 1.98 4 3 C2.68 3 1.36 3 0 3 C-0.33 3.66 -0.66 4.32 -1 5 C-0.67 3.35 -0.34 1.7 0 0 Z " fill="#DAD7E9" transform="translate(80,203)" data-index="59"></path>
<path d="M0 0 C2.475 0.495 2.475 0.495 5 1 C5 1.66 5 2.32 5 3 C5.99 3.33 6.98 3.66 8 4 C7.67 4.66 7.34 5.32 7 6 C5.68 5.34 4.36 4.68 3 4 C3 3.34 3 2.68 3 2 C2.01 1.67 1.02 1.34 0 1 C0 0.67 0 0.34 0 0 Z " fill="#867BC1" transform="translate(46,153)" data-index="60"></path>
</svg>